STARTFONT 2.1
FONT -FontForge-Comic Sans MS-Bold-R-Normal-SansMS--26-250-75-75-P-153-ISO10646-1
SIZE 25 75 75
FONTBOUNDINGBOX 26 31 -1 -8
COMMENT "Generated by fontforge, http://fontforge.sourceforge.net"
COMMENT "(c) 2018 Microsoft Corporation. All Rights Reserved."
STARTPROPERTIES 38
FOUNDRY "FontForge"
FAMILY_NAME "Comic Sans MS"
WEIGHT_NAME "Bold"
SLANT "R"
SETWIDTH_NAME "Normal"
ADD_STYLE_NAME "SansMS"
PIXEL_SIZE 26
POINT_SIZE 250
RESOLUTION_X 75
RESOLUTION_Y 75
SPACING "P"
AVERAGE_WIDTH 153
CHARSET_REGISTRY "ISO10646"
CHARSET_ENCODING "1"
FONTNAME_REGISTRY ""
CHARSET_COLLECTIONS "ISO10646-1"
FONT_NAME "ComicSansMS-Bold"
FACE_NAME "Comic Sans MS Bold"
COPYRIGHT "(c) 2018 Microsoft Corporation. All Rights Reserved."
FONT_VERSION "5.14"
FONT_ASCENT 21
FONT_DESCENT 5
UNDERLINE_POSITION -5
UNDERLINE_THICKNESS 3
X_HEIGHT 12
CAP_HEIGHT 19
RAW_ASCENT 799
RAW_DESCENT 200
RELATIVE_WEIGHT 70
RELATIVE_SETWIDTH 50
SUPERSCRIPT_X 0
SUPERSCRIPT_Y 11
SUPERSCRIPT_SIZE 16
SUBSCRIPT_X 0
SUBSCRIPT_Y 3
SUBSCRIPT_SIZE 16
AVG_LOWERCASE_WIDTH 137
AVG_UPPERCASE_WIDTH 182
ENDPROPERTIES
CHARS 111
STARTCHAR exclam
ENCODING 33
SWIDTH 237 0
DWIDTH 6 0
BBX 3 21 1 -1
BITMAP
E0
E0
E0
E0
E0
E0
E0
E0
E0
E0
E0
E0
E0
E0
E0
E0
E0
00
C0
E0
60
ENDCHAR
STARTCHAR quotedbl
ENCODING 34
SWIDTH 437 0
DWIDTH 11 0
BBX 8 8 1 12
BITMAP
E7
E7
E7
E7
E7
E7
E7
E7
ENDCHAR
STARTCHAR numbersign
ENCODING 35
SWIDTH 842 0
DWIDTH 22 0
BBX 22 21 -1 -1
BITMAP
0060E0
00E0E0
00E1E0
01E1C0
3FFFFC
3FFFFC
3FFFF8
038380
038780
078700
070700
070E00
FFFFE0
FFFFF0
FFFFF0
1C1C00
1C1C00
3C3800
383800
383800
383000
ENDCHAR
STARTCHAR dollar
ENCODING 36
SWIDTH 693 0
DWIDTH 18 0
BBX 15 28 2 -5
BITMAP
0700
0700
0700
0FE0
1FFC
3FFC
7738
E700
E700
E700
F700
FFE0
7FF8
1FFC
073C
071E
070E
070E
070E
071E
E77C
FFF8
FFF0
7FC0
0700
0700
0700
0700
ENDCHAR
STARTCHAR percent
ENCODING 37
SWIDTH 820 0
DWIDTH 21 0
BBX 19 20 1 0
BITMAP
3E0E00
7F1E00
FF9E00
E3BC00
E3B800
FFF800
7F7800
3EF000
00E000
01E000
01C000
03CF80
039FC0
07BFE0
0738E0
0F38E0
0E38E0
1E3FC0
1C1FC0
1C0F00
ENDCHAR
STARTCHAR ampersand
ENCODING 38
SWIDTH 654 0
DWIDTH 17 0
BBX 17 22 0 -2
BITMAP
00F000
01F800
01FC00
039C00
039C00
03BC00
03B800
03F800
03F000
07E600
1FE700
3FF700
7C7F00
F03F00
E03F00
E01E00
E03E00
F07F00
7FFF00
3FF780
0FC380
000300
ENDCHAR
STARTCHAR quotesingle
ENCODING 39
SWIDTH 433 0
DWIDTH 11 0
BBX 3 8 4 12
BITMAP
E0
E0
E0
E0
E0
E0
E0
E0
ENDCHAR
STARTCHAR parenleft
ENCODING 40
SWIDTH 366 0
DWIDTH 10 0
BBX 8 27 1 -7
BITMAP
07
0F
1F
1E
3C
38
78
70
70
F0
E0
E0
E0
E0
E0
E0
E0
E0
F0
70
70
78
38
3E
1F
0F
07
ENDCHAR
STARTCHAR parenright
ENCODING 41
SWIDTH 366 0
DWIDTH 10 0
BBX 8 27 1 -7
BITMAP
E0
F0
F8
78
3C
1C
1E
0E
0E
0F
07
07
07
07
07
07
07
07
0F
0E
0E
1E
1C
7C
F8
F0
E0
ENDCHAR
STARTCHAR asterisk
ENCODING 42
SWIDTH 529 0
DWIDTH 14 0
BBX 12 10 1 10
BITMAP
0E00
0E00
EFF0
FFF0
FFF0
3F80
3FC0
7FE0
79E0
70E0
ENDCHAR
STARTCHAR plus
ENCODING 43
SWIDTH 610 0
DWIDTH 16 0
BBX 11 11 2 3
BITMAP
0E00
0E00
0E00
0E00
FFE0
FFE0
FFE0
0E00
0E00
0E00
0E00
ENDCHAR
STARTCHAR comma
ENCODING 44
SWIDTH 433 0
DWIDTH 11 0
BBX 5 6 3 -4
BITMAP
38
38
78
F0
E0
E0
ENDCHAR
STARTCHAR hyphen
ENCODING 45
SWIDTH 610 0
DWIDTH 16 0
BBX 10 3 3 5
BITMAP
FFC0
FFC0
FFC0
ENDCHAR
STARTCHAR period
ENCODING 46
SWIDTH 433 0
DWIDTH 11 0
BBX 3 3 4 -1
BITMAP
E0
E0
E0
ENDCHAR
STARTCHAR slash
ENCODING 47
SWIDTH 511 0
DWIDTH 13 0
BBX 12 21 1 -1
BITMAP
0070
0070
00F0
00E0
01E0
01C0
01C0
03C0
0380
0780
0F00
0E00
1E00
1C00
3C00
3800
7800
7000
F000
E000
E000
ENDCHAR
STARTCHAR zero
ENCODING 48
SWIDTH 610 0
DWIDTH 16 0
BBX 14 21 1 -1
BITMAP
07C0
1FE0
3FF0
3C78
7838
7038
F01C
E01C
E01C
E01C
E01C
E01C
E01C
E01C
E03C
7038
7038
7878
3FF0
1FE0
0F80
ENDCHAR
STARTCHAR one
ENCODING 49
SWIDTH 610 0
DWIDTH 16 0
BBX 9 20 4 0
BITMAP
0C00
3C00
7C00
FC00
FC00
FC00
1C00
1C00
1C00
1C00
1C00
1C00
1C00
1C00
1C00
1C00
1C00
FF00
FF80
FF80
ENDCHAR
STARTCHAR two
ENCODING 50
SWIDTH 610 0
DWIDTH 16 0
BBX 12 20 2 0
BITMAP
0F80
3FC0
7FE0
F8F0
E070
0070
00F0
00F0
03E0
07C0
0F80
3F00
7C00
7800
F000
E000
E000
FFE0
FFF0
7FF0
ENDCHAR
STARTCHAR three
ENCODING 51
SWIDTH 610 0
DWIDTH 16 0
BBX 12 21 2 -1
BITMAP
0F80
3FC0
7FE0
78F0
7070
0070
00F0
03F0
1FE0
1FC0
1FE0
01E0
00F0
0070
0070
0070
E070
F0E0
FFE0
7FC0
1F00
ENDCHAR
STARTCHAR four
ENCODING 52
SWIDTH 610 0
DWIDTH 16 0
BBX 16 21 0 -1
BITMAP
0018
0038
0078
00F8
01F8
03F8
03F8
07B8
0F38
1E38
3C38
7838
FFFE
FFFF
7FFE
0038
0038
0038
0038
0038
0010
ENDCHAR
STARTCHAR five
ENCODING 53
SWIDTH 610 0
DWIDTH 16 0
BBX 14 21 1 -1
BITMAP
7FF8
7FF8
7FF0
6000
6000
6000
6FC0
FFF0
FFF8
FC38
F01C
F01C
601C
001C
001C
003C
6038
F0F8
FFF0
7FE0
1F80
ENDCHAR
STARTCHAR six
ENCODING 54
SWIDTH 610 0
DWIDTH 16 0
BBX 14 21 1 -1
BITMAP
0300
0780
0F80
1F00
3E00
3C00
7800
7000
7FC0
FFF0
FFF8
F078
E01C
E01C
E01C
E01C
F03C
7878
7FF8
3FF0
0FC0
ENDCHAR
STARTCHAR seven
ENCODING 55
SWIDTH 610 0
DWIDTH 16 0
BBX 15 21 1 -1
BITMAP
FFFE
FFFE
FFFE
007C
00F8
00F0
01F0
01E0
03E0
03C0
03C0
0780
0780
0780
0F00
0F00
0E00
1E00
1E00
1C00
0C00
ENDCHAR
STARTCHAR eight
ENCODING 56
SWIDTH 610 0
DWIDTH 16 0
BBX 14 21 1 -1
BITMAP
07C0
1FF0
3FF0
7878
7038
7038
7038
78F8
3FF0
1FE0
3FF0
7CF8
F03C
E01C
E01C
E01C
E01C
F83C
7FF8
3FF0
0FC0
ENDCHAR
STARTCHAR nine
ENCODING 57
SWIDTH 610 0
DWIDTH 16 0
BBX 14 21 1 -1
BITMAP
0FC0
1FE0
3FF0
7878
F03C
E03C
E01C
E01C
E01C
F01C
787C
7FF8
3FF8
0FF8
0070
00F0
01E0
0FC0
7F80
7E00
7800
ENDCHAR
STARTCHAR colon
ENCODING 58
SWIDTH 433 0
DWIDTH 11 0
BBX 4 13 4 0
BITMAP
60
F0
F0
60
00
00
00
00
60
F0
F0
F0
60
ENDCHAR
STARTCHAR semicolon
ENCODING 59
SWIDTH 433 0
DWIDTH 11 0
BBX 5 17 3 -4
BITMAP
30
78
78
30
00
00
00
00
00
00
00
38
78
78
F0
E0
E0
ENDCHAR
STARTCHAR less
ENCODING 60
SWIDTH 610 0
DWIDTH 16 0
BBX 9 11 3 2
BITMAP
0380
0780
0F00
1E00
7C00
F800
FC00
3E00
0F80
0780
0300
ENDCHAR
STARTCHAR equal
ENCODING 61
SWIDTH 610 0
DWIDTH 16 0
BBX 11 9 3 4
BITMAP
7FE0
FFE0
FFE0
0000
0000
0000
FFE0
FFE0
FFE0
ENDCHAR
STARTCHAR greater
ENCODING 62
SWIDTH 610 0
DWIDTH 16 0
BBX 11 12 2 1
BITMAP
3000
7800
7C00
3F00
1FC0
07E0
03E0
0FC0
3F00
7E00
F800
E000
ENDCHAR
STARTCHAR question
ENCODING 63
SWIDTH 565 0
DWIDTH 15 0
BBX 13 21 1 -1
BITMAP
1F00
7FC0
FFE0
F1F0
60F0
0078
0078
0078
00F8
01F0
03F0
07E0
0FC0
1F00
1E00
0C00
0000
1C00
3C00
3C00
1800
ENDCHAR
STARTCHAR at
ENCODING 64
SWIDTH 931 0
DWIDTH 24 0
BBX 21 23 1 -2
BITMAP
01FC00
07FF00
0FFFC0
1F07E0
3C01E0
7870F0
71F870
73F038
E7E038
EF8C38
EF1C38
EF1C38
EF3C78
EFFFF0
E7FFE0
F3C7C0
700000
780000
3C0000
3F0380
1FFFC0
07FF80
01FC00
ENDCHAR
STARTCHAR A
ENCODING 65
SWIDTH 731 0
DWIDTH 19 0
BBX 17 21 1 -1
BITMAP
003000
007800
007800
00F800
01F800
01FC00
03FC00
03BC00
07BC00
0F3E00
0E1E00
1FFE00
1FFE00
3FFE00
380F00
780F00
700F00
F00780
F00780
E00380
600300
ENDCHAR
STARTCHAR B
ENCODING 66
SWIDTH 630 0
DWIDTH 16 0
BBX 13 21 2 -1
BITMAP
7F00
FF80
FFE0
E1E0
E0F0
E070
E070
E070
E1E0
FFE0
FFC0
FFF0
E0F0
E078
E038
E038
E078
E3F0
FFE0
FFC0
7E00
ENDCHAR
STARTCHAR C
ENCODING 67
SWIDTH 618 0
DWIDTH 16 0
BBX 15 21 1 -1
BITMAP
00FC
03FE
07FE
0F1E
1E0E
1C00
3C00
3800
7000
7000
F000
E000
E000
E000
E000
E018
F03C
78FC
3FF8
1FE0
0F80
ENDCHAR
STARTCHAR D
ENCODING 68
SWIDTH 721 0
DWIDTH 19 0
BBX 15 21 3 -1
BITMAP
6000
F800
FF00
EFC0
E3E0
E0F0
E078
E03C
E01C
E01E
E00E
E00E
E00E
E00E
E01E
E01C
E03C
E078
FFF8
7FE0
1F80
ENDCHAR
STARTCHAR E
ENCODING 69
SWIDTH 624 0
DWIDTH 16 0
BBX 13 21 2 -1
BITMAP
FFF0
FFF8
FFF0
E000
E000
E000
E000
E000
E000
FFF0
FFF8
FFF0
E000
E000
E000
E000
E000
E000
FFF0
7FF8
3FF0
ENDCHAR
STARTCHAR F
ENCODING 70
SWIDTH 606 0
DWIDTH 16 0
BBX 13 22 1 -2
BITMAP
FFE0
FFF8
FFF0
E000
E000
E000
E000
E000
FFE0
FFF0
FFE0
E000
E000
E000
E000
E000
E000
E000
E000
E000
E000
4000
ENDCHAR
STARTCHAR G
ENCODING 71
SWIDTH 679 0
DWIDTH 18 0
BBX 17 21 1 -1
BITMAP
01F000
03FC00
07FE00
0F1E00
1E0000
3C0000
380000
780000
700000
70FF00
E7FF80
EFFF80
EF8700
E00F00
E00E00
E01E00
E03C00
707C00
7FF800
3FE000
0F8000
ENDCHAR
STARTCHAR H
ENCODING 72
SWIDTH 768 0
DWIDTH 20 0
BBX 16 21 2 -1
BITMAP
4002
E007
E007
E007
E007
E007
E007
E007
E007
E1FF
FFFF
FFFF
FE07
E007
E007
E007
E007
E007
E007
E007
4002
ENDCHAR
STARTCHAR I
ENCODING 73
SWIDTH 546 0
DWIDTH 14 0
BBX 11 21 1 -1
BITMAP
7FC0
FFE0
7FC0
0E00
0E00
0E00
0E00
0E00
0E00
0E00
0E00
0E00
0E00
0E00
0E00
0E00
0E00
0E00
7FC0
FFE0
7FC0
ENDCHAR
STARTCHAR J
ENCODING 74
SWIDTH 665 0
DWIDTH 17 0
BBX 16 22 1 -2
BITMAP
07FE
0FFF
07FE
0070
0070
0070
0070
0070
0070
0070
0070
0070
0070
00F0
00F0
40E0
E0E0
E0E0
F8E0
7FE0
3FC0
0780
ENDCHAR
STARTCHAR K
ENCODING 75
SWIDTH 610 0
DWIDTH 16 0
BBX 13 22 1 -2
BITMAP
4020
E070
E0F0
E1E0
E3E0
E7C0
E780
EF00
FE00
FC00
F800
F000
F800
FC00
FE00
EF80
E7C0
E3F0
E1F8
E0F8
E038
4000
ENDCHAR
STARTCHAR L
ENCODING 76
SWIDTH 550 0
DWIDTH 14 0
BBX 13 21 1 -1
BITMAP
4000
E000
E000
E000
E000
E000
E000
E000
E000
E000
E000
E000
E000
E000
E000
E000
E000
E0F0
FFF8
FFF0
7F80
ENDCHAR
STARTCHAR M
ENCODING 77
SWIDTH 882 0
DWIDTH 23 0
BBX 20 21 1 -1
BITMAP
060200
0E0700
0E0700
0F0700
1F0F80
1F0F80
1F0F80
1F0F80
1F9F80
3F9F80
3B9DC0
3BBDC0
7BB9C0
73F9C0
71F8E0
F1F0E0
F1F0E0
E1F070
E0F070
E0E070
C06030
ENDCHAR
STARTCHAR N
ENCODING 78
SWIDTH 812 0
DWIDTH 21 0
BBX 19 22 1 -2
BITMAP
6000C0
F000E0
F800E0
FC00E0
FC00E0
FE00E0
FF00E0
EF00E0
EF80E0
E7C0E0
E3E0E0
E1F0E0
E0F0E0
E078E0
E07CE0
E03EE0
E01FE0
E00FE0
E007E0
E003E0
E001C0
400000
ENDCHAR
STARTCHAR O
ENCODING 79
SWIDTH 798 0
DWIDTH 21 0
BBX 19 21 1 -1
BITMAP
01FC00
07FF00
0FFF80
1F03C0
3E01C0
3C00E0
7800E0
7000E0
7000E0
E000E0
E000E0
E000E0
E001C0
E001C0
E003C0
F00380
780780
3C1F00
1FFE00
0FFC00
03F000
ENDCHAR
STARTCHAR P
ENCODING 80
SWIDTH 532 0
DWIDTH 14 0
BBX 12 22 1 -2
BITMAP
7F00
FF80
FFE0
E1E0
E0F0
E070
E070
E070
E0F0
E1E0
FFC0
FF80
FE00
E000
E000
E000
E000
E000
E000
E000
E000
4000
ENDCHAR
STARTCHAR Q
ENCODING 81
SWIDTH 876 0
DWIDTH 23 0
BBX 23 26 0 -6
BITMAP
00FE00
03FF80
07FFE0
1F81F0
3E00F0
3C0078
780038
700038
F0001C
E0001C
E0001C
E0001C
E0001C
E0001C
F0703C
70F838
78FC78
3C7FF0
1E7FE0
0FFFC0
07FFF0
01FDF8
0000FC
00007E
00001E
00000C
ENDCHAR
STARTCHAR R
ENCODING 82
SWIDTH 640 0
DWIDTH 17 0
BBX 14 21 2 -1
BITMAP
7C00
FF80
FFC0
E3E0
E0F0
E070
E038
E038
E038
E078
E1F0
FFE0
FFC0
FF80
EFE0
E3F0
E0F8
E07C
E03C
E018
4000
ENDCHAR
STARTCHAR S
ENCODING 83
SWIDTH 693 0
DWIDTH 18 0
BBX 17 21 0 -1
BITMAP
00F800
03FF00
0FFF00
1F0E00
1C0000
380000
380000
3C0000
3FF800
1FFE00
07FF00
000F00
000380
000380
000380
E00780
E00F80
F03F00
7FFE00
7FF800
1FE000
ENDCHAR
STARTCHAR T
ENCODING 84
SWIDTH 695 0
DWIDTH 18 0
BBX 18 22 0 -2
BITMAP
7FFF80
FFFFC0
7FFF80
01C000
01C000
01C000
01C000
01C000
01C000
01C000
01C000
01C000
01C000
01C000
01C000
01C000
01C000
01C000
01C000
01C000
01C000
008000
ENDCHAR
STARTCHAR U
ENCODING 85
SWIDTH 736 0
DWIDTH 19 0
BBX 17 21 1 -1
BITMAP
400100
E00380
E00380
E00380
E00380
E00380
E00380
E00380
E00380
E00380
E00300
E00700
E00700
E00700
E00E00
700E00
701C00
783C00
3FF800
1FF000
07C000
ENDCHAR
STARTCHAR V
ENCODING 86
SWIDTH 674 0
DWIDTH 18 0
BBX 16 21 1 -1
BITMAP
E006
E00F
E00F
F01E
F01E
701C
783C
783C
3838
3C78
3C78
3C70
1EF0
1EF0
1FE0
0FE0
0FC0
0FC0
07C0
0780
0380
ENDCHAR
STARTCHAR W
ENCODING 87
SWIDTH 1039 0
DWIDTH 27 0
BBX 23 21 2 -1
BITMAP
E0180E
E0380E
F0381E
70381C
70781C
787C3C
387C38
38FC38
38FC78
18EC70
1DEC70
1DECE0
1DCCE0
0FCEE0
0F8FC0
0F8FC0
0F8F80
070780
070780
070700
070700
ENDCHAR
STARTCHAR X
ENCODING 88
SWIDTH 723 0
DWIDTH 19 0
BBX 18 21 0 -1
BITMAP
600180
7803C0
7807C0
3C0F80
1E0F00
0F1F00
0FBE00
07FC00
03F800
01F800
01F000
03F800
07F800
0FBC00
0F3E00
1E1F00
3E0F00
7C0780
F807C0
F003C0
600180
ENDCHAR
STARTCHAR Y
ENCODING 89
SWIDTH 635 0
DWIDTH 17 0
BBX 17 21 0 -1
BITMAP
E00380
E00380
F00780
780700
3C0700
3E0F00
1E0E00
0F1E00
079C00
07FC00
03F800
01F800
00F800
00F000
00F000
00E000
01E000
01C000
03C000
038000
038000
ENDCHAR
STARTCHAR Z
ENCODING 90
SWIDTH 693 0
DWIDTH 18 0
BBX 17 21 0 -1
BITMAP
7FFF00
FFFF80
7FFF00
007F00
00FE00
00F800
01F000
03E000
03C000
078000
078000
0F0000
1E0000
1C0000
3C0000
380000
700000
700000
FFFF00
FFFF80
7FFF00
ENDCHAR
STARTCHAR bracketleft
ENCODING 91
SWIDTH 376 0
DWIDTH 10 0
BBX 6 25 2 -5
BITMAP
FC
FC
FC
E0
E0
E0
E0
E0
E0
E0
E0
E0
E0
E0
E0
E0
E0
E0
E0
E0
E0
E0
FC
FC
FC
ENDCHAR
STARTCHAR backslash
ENCODING 92
SWIDTH 549 0
DWIDTH 14 0
BBX 12 22 1 -2
BITMAP
6000
F000
F000
7800
7800
3C00
3C00
1E00
1E00
0F00
0F00
0700
0780
0780
03C0
03C0
01C0
01E0
01E0
00F0
00F0
0060
ENDCHAR
STARTCHAR bracketright
ENCODING 93
SWIDTH 376 0
DWIDTH 10 0
BBX 6 25 3 -5
BITMAP
FC
FC
FC
1C
1C
1C
1C
1C
1C
1C
1C
1C
1C
1C
1C
1C
1C
1C
1C
1C
1C
1C
FC
FC
FC
ENDCHAR
STARTCHAR asciicircum
ENCODING 94
SWIDTH 610 0
DWIDTH 16 0
BBX 11 6 3 15
BITMAP
0E00
1F00
3F80
7BC0
F1E0
E0E0
ENDCHAR
STARTCHAR underscore
ENCODING 95
SWIDTH 626 0
DWIDTH 16 0
BBX 18 2 -1 -4
BITMAP
FFFFC0
FFFFC0
ENDCHAR
STARTCHAR grave
ENCODING 96
SWIDTH 556 0
DWIDTH 14 0
BBX 7 6 1 15
BITMAP
E0
F8
7C
3C
1E
0E
ENDCHAR
STARTCHAR a
ENCODING 97
SWIDTH 555 0
DWIDTH 14 0
BBX 12 14 1 -1
BITMAP
0F80
1FC0
3FE0
78E0
70E0
E0E0
E0E0
E0E0
E0E0
E0E0
F1E0
7FF0
7FF0
1E70
ENDCHAR
STARTCHAR b
ENCODING 98
SWIDTH 593 0
DWIDTH 15 0
BBX 13 21 1 -1
BITMAP
4000
E000
E000
E000
E000
E000
E000
EF80
FFE0
FFF0
F8F0
E078
E038
E038
E038
E038
E078
F0F0
FFE0
FFC0
FF80
ENDCHAR
STARTCHAR c
ENCODING 99
SWIDTH 513 0
DWIDTH 13 0
BBX 12 14 0 -1
BITMAP
0780
1FE0
3FF0
7870
7000
F000
E000
E000
E000
E000
F070
7FF0
3FE0
0F80
ENDCHAR
STARTCHAR d
ENCODING 100
SWIDTH 587 0
DWIDTH 15 0
BBX 12 21 1 -1
BITMAP
0020
0070
0070
0070
0070
0070
0070
0FF0
3FF0
7FF0
78F0
F070
E070
E070
E070
E070
F070
78F0
7FF0
3FF0
1FF0
ENDCHAR
STARTCHAR e
ENCODING 101
SWIDTH 559 0
DWIDTH 15 0
BBX 13 14 1 -1
BITMAP
0FC0
1FE0
3FF0
7870
71F0
EFE0
FF80
FE00
F000
E000
F838
7FF8
3FF0
0FC0
ENDCHAR
STARTCHAR f
ENCODING 102
SWIDTH 508 0
DWIDTH 13 0
BBX 11 23 1 -3
BITMAP
03C0
07E0
0FC0
0E00
1E00
1C00
1C00
7FC0
FFE0
7FC0
1C00
1C00
1C00
1C00
1C00
1C00
1C00
1C00
1C00
1C00
1C00
1C00
0800
ENDCHAR
STARTCHAR g
ENCODING 103
SWIDTH 530 0
DWIDTH 14 0
BBX 13 20 0 -7
BITMAP
07C0
1FF0
3FF8
7C38
7038
F038
E030
E070
E070
E0F0
F1F0
7FF0
3FF0
1F70
0070
00F0
01E0
FFE0
FFC0
7F00
ENDCHAR
STARTCHAR h
ENCODING 104
SWIDTH 577 0
DWIDTH 15 0
BBX 11 21 2 -1
BITMAP
4000
E000
E000
E000
E000
E000
E000
E780
FFC0
FFE0
FCE0
F8E0
F0E0
E0E0
E0E0
E0E0
E0E0
E0E0
E0E0
E0E0
4040
ENDCHAR
STARTCHAR i
ENCODING 105
SWIDTH 280 0
DWIDTH 7 0
BBX 3 20 2 -2
BITMAP
E0
E0
E0
00
00
40
E0
E0
E0
E0
E0
E0
E0
E0
E0
E0
E0
E0
E0
40
ENDCHAR
STARTCHAR j
ENCODING 106
SWIDTH 403 0
DWIDTH 10 0
BBX 9 25 -1 -7
BITMAP
0700
0700
0700
0000
0000
0200
0700
0700
0700
0700
0700
0700
0700
0780
0380
0380
0380
0380
0380
E380
F380
F380
7F00
3F00
1E00
ENDCHAR
STARTCHAR k
ENCODING 107
SWIDTH 540 0
DWIDTH 14 0
BBX 12 22 1 -2
BITMAP
4000
E000
E000
E000
E000
E000
E000
E0C0
E1E0
E3E0
E7C0
EF80
FF00
FE00
FF00
FF80
E380
E3C0
E1E0
E0F0
E0F0
4060
ENDCHAR
STARTCHAR l
ENCODING 108
SWIDTH 273 0
DWIDTH 7 0
BBX 3 22 2 -2
BITMAP
40
E0
E0
E0
E0
E0
E0
E0
E0
E0
E0
E0
E0
E0
E0
E0
E0
E0
E0
E0
E0
40
ENDCHAR
STARTCHAR m
ENCODING 109
SWIDTH 776 0
DWIDTH 20 0
BBX 16 16 1 -2
BITMAP
4000
E73E
EFFF
FFFF
FBE7
F387
E387
E387
E387
E387
E387
E387
E387
E387
4387
0102
ENDCHAR
STARTCHAR n
ENCODING 110
SWIDTH 523 0
DWIDTH 14 0
BBX 12 14 1 -1
BITMAP
E7C0
FFE0
FFF0
FE70
F870
F070
F070
E070
E070
E070
E070
E070
E070
4020
ENDCHAR
STARTCHAR o
ENCODING 111
SWIDTH 525 0
DWIDTH 14 0
BBX 12 14 1 -1
BITMAP
0F80
3FC0
3FE0
78E0
F070
E070
E070
E070
E070
E0F0
71E0
7FE0
3FC0
1F00
ENDCHAR
STARTCHAR p
ENCODING 112
SWIDTH 534 0
DWIDTH 14 0
BBX 11 21 2 -8
BITMAP
6F00
FF80
FFC0
F9C0
E0E0
E0E0
E0E0
E0E0
E0E0
E0E0
E1C0
FFC0
FF80
FF00
E000
E000
E000
E000
E000
E000
4000
ENDCHAR
STARTCHAR q
ENCODING 113
SWIDTH 520 0
DWIDTH 14 0
BBX 12 21 1 -8
BITMAP
07E0
1FF0
3FF0
7C70
7070
F070
E070
E070
E070
E070
F870
7FE0
3FE0
0FE0
00E0
00E0
00E0
00E0
00E0
00E0
0040
ENDCHAR
STARTCHAR r
ENCODING 114
SWIDTH 480 0
DWIDTH 13 0
BBX 11 14 1 -1
BITMAP
E7C0
FFE0
FFE0
FCE0
F0E0
E0E0
E000
E000
E000
E000
E000
E000
E000
4000
ENDCHAR
STARTCHAR s
ENCODING 115
SWIDTH 486 0
DWIDTH 13 0
BBX 11 14 1 -1
BITMAP
0FC0
3FE0
7FE0
70E0
7800
7E00
3F80
0FC0
03E0
00E0
E0E0
FFE0
FFC0
3F00
ENDCHAR
STARTCHAR t
ENCODING 116
SWIDTH 471 0
DWIDTH 12 0
BBX 11 18 0 -1
BITMAP
0400
0E00
0E00
0E00
7FC0
FFE0
7FC0
0E00
0E00
0E00
0E00
0E00
0E00
0E00
0E00
0E00
0E00
0400
ENDCHAR
STARTCHAR u
ENCODING 117
SWIDTH 520 0
DWIDTH 14 0
BBX 12 14 1 -1
BITMAP
4020
E070
E070
E070
E070
E070
E070
E070
E070
E070
6070
7FF0
7FF0
1FF0
ENDCHAR
STARTCHAR v
ENCODING 118
SWIDTH 486 0
DWIDTH 13 0
BBX 12 14 1 -1
BITMAP
E070
E070
F0F0
70E0
70E0
79C0
39C0
3F80
3F80
1F00
1F00
0F00
0E00
0E00
ENDCHAR
STARTCHAR w
ENCODING 119
SWIDTH 684 0
DWIDTH 18 0
BBX 17 14 0 -1
BITMAP
E08380
E1C380
E1C380
E3C700
F3E700
77E700
77EF00
7FEE00
7FFE00
7E7E00
3E7C00
3E7C00
1C3800
1C3800
ENDCHAR
STARTCHAR x
ENCODING 120
SWIDTH 590 0
DWIDTH 15 0
BBX 14 14 0 -1
BITMAP
301C
783C
7C7C
1EF8
0FF0
0FE0
07C0
0FC0
1FE0
7CF0
F878
F07C
E03C
0018
ENDCHAR
STARTCHAR y
ENCODING 121
SWIDTH 552 0
DWIDTH 14 0
BBX 14 20 0 -7
BITMAP
601C
F01C
F03C
7838
7C78
3C70
1EF0
1FE0
0FE0
0FC0
07C0
0380
0780
0700
0F00
0E00
1E00
1E00
1C00
1C00
ENDCHAR
STARTCHAR z
ENCODING 122
SWIDTH 538 0
DWIDTH 14 0
BBX 13 13 0 0
BITMAP
7FF8
FFF8
7FF8
00F0
01E0
03C0
0780
0F00
1E00
3C00
7FF0
FFF8
FFF0
ENDCHAR
STARTCHAR braceleft
ENCODING 123
SWIDTH 366 0
DWIDTH 10 0
BBX 9 25 0 -5
BITMAP
0F00
1F80
3F80
3800
3800
3800
3800
3800
3800
3800
7800
F000
E000
F000
7800
3800
3800
3800
3800
3800
3800
1C00
1F80
0F80
0780
ENDCHAR
STARTCHAR bar
ENCODING 124
SWIDTH 421 0
DWIDTH 11 0
BBX 3 27 4 -5
BITMAP
E0
E0
E0
E0
E0
E0
E0
E0
E0
E0
E0
E0
E0
E0
E0
E0
E0
E0
E0
E0
E0
E0
E0
E0
E0
E0
60
ENDCHAR
STARTCHAR braceright
ENCODING 125
SWIDTH 366 0
DWIDTH 10 0
BBX 9 25 0 -5
BITMAP
7800
FC00
FC00
0E00
0E00
0E00
0E00
0E00
0E00
0E00
0F00
0780
0380
0780
0F00
0E00
0E00
0E00
0E00
0E00
0E00
1C00
FC00
F800
F000
ENDCHAR
STARTCHAR asciitilde
ENCODING 126
SWIDTH 610 0
DWIDTH 16 0
BBX 14 6 1 6
BITMAP
1E1C
7F1C
7FBC
F3FC
E1F8
00F0
ENDCHAR
STARTCHAR cent
ENCODING 162
SWIDTH 610 0
DWIDTH 16 0
BBX 13 22 1 0
BITMAP
0700
0700
0700
0FF8
1FF8
3FF8
7F70
7730
F700
E700
E700
E700
E700
E718
7738
7778
3FF0
1FE0
0FC0
0700
0700
0700
ENDCHAR
STARTCHAR sterling
ENCODING 163
SWIDTH 793 0
DWIDTH 21 0
BBX 19 21 0 -1
BITMAP
00FC00
03FF00
07FF80
0F87C0
0E03C0
1E0180
1C0000
1C0000
FFFE00
FFFE00
FFFE00
0E0000
070000
070000
070000
0700E0
0700E0
0FE1E0
1FFFE0
1FFFC0
1C3F00
ENDCHAR
STARTCHAR brokenbar
ENCODING 166
SWIDTH 421 0
DWIDTH 11 0
BBX 3 27 4 -5
BITMAP
E0
E0
E0
E0
E0
E0
E0
E0
E0
E0
E0
E0
00
00
00
E0
E0
E0
E0
E0
E0
E0
E0
E0
E0
E0
E0
ENDCHAR
STARTCHAR guillemotleft
ENCODING 171
SWIDTH 638 0
DWIDTH 17 0
BBX 17 11 0 2
BITMAP
038380
078780
0F8F00
3E3E00
7C7C00
F8F800
FCFC00
3E3E00
0F8F80
078780
038300
ENDCHAR
STARTCHAR uni00AD
ENCODING 173
SWIDTH 610 0
DWIDTH 16 0
BBX 10 3 3 5
BITMAP
FFC0
FFC0
FFC0
ENDCHAR
STARTCHAR degree
ENCODING 176
SWIDTH 610 0
DWIDTH 16 0
BBX 10 9 3 11
BITMAP
1E00
7F80
FF80
F3C0
E1C0
E3C0
FFC0
7F80
3E00
ENDCHAR
STARTCHAR plusminus
ENCODING 177
SWIDTH 610 0
DWIDTH 16 0
BBX 11 15 2 -2
BITMAP
0600
0E00
0E00
0E00
FFE0
FFE0
FFE0
0E00
0E00
0E00
0C00
0000
FFE0
FFE0
7FE0
ENDCHAR
STARTCHAR uni00B2
ENCODING 178
SWIDTH 610 0
DWIDTH 16 0
BBX 9 11 4 11
BITMAP
3C00
7E00
FF00
E700
CF00
1E00
7C00
7800
FF80
FF80
7F00
ENDCHAR
STARTCHAR uni00B3
ENCODING 179
SWIDTH 610 0
DWIDTH 16 0
BBX 7 11 5 11
BITMAP
78
FC
FE
0E
7E
7E
3E
0E
FE
FC
78
ENDCHAR
STARTCHAR acute
ENCODING 180
SWIDTH 556 0
DWIDTH 14 0
BBX 7 6 2 15
BITMAP
0E
1E
3C
78
F0
E0
ENDCHAR
STARTCHAR periodcentered
ENCODING 183
SWIDTH 610 0
DWIDTH 16 0
BBX 3 3 6 8
BITMAP
60
E0
60
ENDCHAR
STARTCHAR uni00B9
ENCODING 185
SWIDTH 610 0
DWIDTH 16 0
BBX 9 11 4 11
BITMAP
0C00
3C00
7C00
7C00
1C00
1C00
1C00
1C00
FF80
FF80
FF80
ENDCHAR
STARTCHAR ordmasculine
ENCODING 186
SWIDTH 610 0
DWIDTH 16 0
BBX 10 10 2 12
BITMAP
1E00
3F00
7F80
F1C0
E1C0
E1C0
F3C0
7F80
7F80
1F00
ENDCHAR
STARTCHAR guillemotright
ENCODING 187
SWIDTH 638 0
DWIDTH 17 0
BBX 17 11 0 2
BITMAP
E0E000
F0F000
78F800
3E3E00
1F1F00
0F8F80
1F9F80
3E3E00
F8F800
F0F000
E0E000
ENDCHAR
STARTCHAR onequarter
ENCODING 188
SWIDTH 610 0
DWIDTH 16 0
BBX 15 26 1 -4
BITMAP
0180
0780
0F80
0F80
0380
0380
0380
0380
1FF0
1FF0
1FF0
0000
FFFC
FFFE
FFFE
0000
01C0
03C0
07C0
0EC0
1CC0
3FF0
3FF0
00C0
00C0
00C0
ENDCHAR
STARTCHAR onehalf
ENCODING 189
SWIDTH 610 0
DWIDTH 16 0
BBX 14 27 1 -5
BITMAP
0180
0780
0F80
0F80
0380
0380
0380
0380
1FF0
1FF0
1FF0
0000
FFF8
FFFC
FFFC
0000
0780
0FC0
1FE0
1CE0
18E0
03C0
0F80
1F00
1FF0
1FF0
0FE0
ENDCHAR
STARTCHAR threequarters
ENCODING 190
SWIDTH 610 0
DWIDTH 16 0
BBX 13 26 2 -4
BITMAP
0F00
1F80
1FC0
01C0
0FC0
0F80
07C0
01C0
1FC0
1F80
0F00
0000
FFF0
FFF8
FFF8
0000
0700
0F00
1F00
3B00
7300
FFC0
FFC0
03C0
0300
0300
ENDCHAR
ENDFONT
